# xmcd
#
# Track frame offsets:
#  150
#  4920
#  24382
#  35825
#  52825
#  75090
#  88812
#  109882
#  120162
#  150150
#  157750
#  169615
#  182067
#  197275
#  209262
#  222500
#  233975
#  243225
#  262010
#  277085
#  285840
#  299835
#
# Disc length: 4207 seconds
#
# Revision: 6
# Processed by: cddbd v1.5.1PL2 Copyright (c) Steve Scherf et al.
# Submitted via: AltoMP3_Maker 3.0
#
DISCID=22106d16
DTITLE=Taj Mahal - Giant Step/De Ole Folks at Home
DYEAR=1969
DGENRE=Blues
TTITLE0=Ain't Gwine Whistle Dixie Anymo'
TTITLE1=Take a Giant Step
TTITLE2=Give Your Woman What She Wants
TTITLE3=Good Morning Little School Girl
TTITLE4=You're Gonna Need Somebody On Your Bond
TTITLE5=Six Days On the Road
TTITLE6=Farther On Down the Road (You Will Accompany Me)
TTITLE7=Keep Your Hands Off Her
TTITLE8=Bacon Fat
TTITLE9=Linin' Track
TTITLE10=Country Blues #1
TTITLE11=Wild Ox Moan
TTITLE12=Light Rain Blues
TTITLE13=A Little Soulful Tune
TTITLE14=Candy Man
TTITLE15=Cluck Old Hen
TTITLE16=Colored Aristocracy
TTITLE17=Blind Boy Rag
TTITLE18=Stagger Lee
TTITLE19=Cajun Tune
TTITLE20=Fishin' Blues
TTITLE21=Annie's Lover
EXTD=
EXTT0=
EXTT1=
EXTT2=
EXTT3=
EXTT4=
EXTT5=
EXTT6=
EXTT7=
EXTT8=
EXTT9=
EXTT10=
EXTT11=
EXTT12=
EXTT13=
EXTT14=
EXTT15=
EXTT16=
EXTT17=
EXTT18=
EXTT19=
EXTT20=
EXTT21=
PLAYORDER=
